<svg xmlns="http://www.w3.org/2000/svg" xmlns:xlink="http://www.w3.org/1999/xlink" fill="none" version="1.1" width="93" height="24" viewBox="0 0 93 24"><g><path d="M2.2319999,11.114Q2.0339999,14.714,0.71999997,18.818001L3.2759998,18.818001Q4.2839999,15.398,4.572,11.114L2.2319999,11.114ZM4.6799998,10.268L4.6799998,7.8740005L0.88199997,6.8120003L0.88199997,9.2420006L4.6799998,10.268ZM4.6439996,6.0200005L4.6439996,3.5900002L1.242,2.5820007L1.242,5.0120001L4.6439996,6.0200005ZM4.5179996,18.782Q5.1659999,17.09,5.5079999,15.794Q5.8499999,14.498,5.9399996,13.058001L5.04,13.058001L5.04,10.934L7.4159999,10.934L7.4159999,10.106001L5.2919998,10.106001L5.2919998,3.1400003L7.3979998,3.1400003L7.5419998,2.3480005L9.7379999,2.3480005L9.5939999,3.1400003L11.106,3.1400003L11.106,8.198Q11.808,5.4620008,11.952,2.4740009L14.058,2.4740009Q14.039999,3.1220007,13.931999,4.3820009L17.261999,4.3820009L17.261999,6.6860008L16.703999,6.6860008Q16.559999,10.52,15.714,13.346001L17.441999,18.782L15.389999,18.782L14.615999,16.280001Q14.058,17.558001,13.41,18.782L9.1259995,18.782L9.1259995,16.028L7.7219996,16.028Q7.4159999,17.360001,6.9119997,18.782L4.5179996,18.782ZM9.198,8.3959999L9.198,7.3880005L7.1999998,7.3880005L7.1999998,8.3959999L9.198,8.3959999ZM9.198,5.8580008L9.198,4.8860006L7.1999998,4.8860006L7.1999998,5.8580008L9.198,5.8580008ZM11.124,13.940001L11.124,18.566Q11.988,17.035999,12.518999,16.019001Q13.049999,15.002,13.464,13.976L11.754,9.026001L11.106,9.026001L11.106,10.106001L9.6119995,10.106001L9.6119995,10.934L11.573999,10.934L11.573999,13.058001L8.118,13.058001Q8.0819998,13.634,8.0459995,13.940001L11.124,13.940001ZM14.417999,10.844Q14.796,9.026001,14.903999,6.6860008L13.499999,6.6860008L13.337999,7.5500002L14.417999,10.844ZM18.9,16.459999Q20.969999,15.758,22.184999,14.417Q23.4,13.076,23.562,10.826L18.719999,10.826L18.719999,8.5040007L25.83,8.5040007L25.83,2.3300009L28.169998,2.3300009L28.169998,8.5040007L35.279999,8.5040007L35.279999,10.826L30.869999,10.826L30.869999,16.208L35.279999,16.208L35.279999,18.530001L28.529999,18.530001L28.529999,10.826L25.865999,10.826Q25.703999,14.048,23.868,16.063999Q22.032,18.08,18.9,18.98L18.9,16.459999ZM22.427999,2.7800007L23.688,7.3520002L21.24,7.3520002L19.98,2.7800007L22.427999,2.7800007ZM31.571999,2.7800007L34.019997,2.7800007L32.759998,7.3520002L30.312,7.3520002L31.571999,2.7800007ZM48.059998,2.8700008L48.059998,13.922L46.674,13.922Q48.257999,15.614,48.798,18.799999L46.745998,18.799999Q46.439999,16.532,45.18,15.218Q44.658001,16.604,43.586998,17.584999Q42.515999,18.566,40.986,18.98L40.986,16.604Q41.886002,16.351999,42.551998,15.731Q43.217999,15.110001,43.577999,14.264Q43.938,13.418,43.938,12.518L43.938,6.1460009L45.647999,6.1460009L45.647999,12.518Q45.647999,12.860001,45.629997,13.022L46.188,13.454L46.188,5.1380005L43.397999,5.1380005L43.397999,14.102L41.526001,14.102L41.543999,2.8700008L48.059998,2.8700008ZM39.366001,18.799999Q40.644001,15.614,41.202,11.132L38.790001,11.132Q38.304001,14.93,36.737999,18.799999L39.366001,18.799999ZM41.202,10.304001L41.202,7.8920002L36.900002,6.8300009L36.900002,9.2779999L41.202,10.304001ZM41.166,6.0560007L41.166,3.6080008L37.259998,2.6000004L37.259998,5.0480003L41.166,6.0560007ZM48.671997,3.500001L50.309998,3.500001L50.309998,15.146L48.671997,15.146L48.671997,3.500001ZM49.355999,16.532L50.903999,16.532L50.903999,2.6000004L52.830002,2.6000004L52.830002,18.799999L49.355999,18.799999L49.355999,16.532ZM71.244003,5.2280006L64.601997,5.2280006L64.601997,7.1360006L70.667999,7.1360006L70.667999,13.868L64.601997,13.868L64.601997,16.172001L71.244003,16.172001L71.244003,18.476L62.262001,18.476L62.262001,2.9240007L71.244003,2.9240007L71.244003,5.2280006ZM54.720001,16.208L55.259998,16.136L55.259998,10.358L57.113998,10.358L57.113998,15.902L57.959999,15.776L57.959999,9.2420006L55.439999,9.2420006L55.439999,2.7440004L61.344002,2.7440004L61.344002,9.2420006L60.084,9.2420006L60.084,10.952L61.181999,10.952L61.181999,13.148001L60.084,13.148001L60.084,15.506001L61.703999,15.29L61.703999,17.521999L54.720001,18.440001L54.720001,16.208ZM59.292,7.1000004L59.292,4.8860006L57.492001,4.8860006L57.492001,7.1000004L59.292,7.1000004ZM68.400002,11.636L68.400002,9.368L64.601997,9.368L64.601997,11.636L68.400002,11.636ZM89.244003,18.98Q85.877998,17.719999,83.573997,15.578Q81.251999,17.719999,77.886002,18.98L77.886002,16.298Q80.279999,15.254,81.917999,13.796Q78.93,9.9260006,78.695999,3.9140005L81,3.9140005Q81.323997,8.9000006,83.573997,11.978001Q85.806,8.882,86.129997,3.9140005L88.433998,3.9140005Q88.199997,9.9260006,85.211998,13.796Q86.849998,15.254,89.244003,16.298L89.244003,18.98ZM72.720001,8.5580006Q74.807999,6.1640005,75.636002,2.6000004L77.994003,2.6000004Q77.598,5.0120001,76.662003,7.0640001L76.662003,18.889999L74.321999,18.889999L74.321999,10.700001Q73.620003,11.51,72.720001,12.266001L72.720001,8.5580006ZM84.222,2.5100002L85.031998,6.2540007L82.764,6.2540007L81.954002,2.5100002L84.222,2.5100002Z" fill="#EFEFEF" fill-opacity="1"/></g></svg>