<svg xmlns="http://www.w3.org/2000/svg" xmlns:xlink="http://www.w3.org/1999/xlink" fill="none" version="1.1" width="18" height="13" viewBox="0 0 18 13"><path d="M17.7071,0.29289299C18.097601,0.68341702,18.097601,1.3165801,17.7071,1.70711C17.7071,1.70711,6.7071099,12.7071,6.7071099,12.7071C6.3165798,13.0976,5.6834202,13.0976,5.2928901,12.7071C5.2928901,12.7071,0.29289299,7.7071099,0.29289299,7.7071099C-0.097631097,7.3165798,-0.097631097,6.6834202,0.29289299,6.2928901C0.68341702,5.90237,1.3165801,5.90237,1.70711,6.2928901C1.70711,6.2928901,6,10.5858,6,10.5858C6,10.5858,16.2929,0.29289299,16.2929,0.29289299C16.683399,-0.097631097,17.316601,-0.097631097,17.7071,0.29289299C17.7071,0.29289299,17.7071,0.29289299,17.7071,0.29289299Z" fill-rule="evenodd" fill="#FFFFFF" fill-opacity="1"/></svg>