<svg xmlns="http://www.w3.org/2000/svg" xmlns:xlink="http://www.w3.org/1999/xlink" fill="none" version="1.1" width="240" height="284" viewBox="0 0 240 284"><defs><pattern x="0" y="0" width="240" height="284" patternUnits="userSpaceOnUse" id="master_svg0_13_4764"><g id="neutral-room-preview"><rect x="0" y="0" width="240" height="284" fill="#253342"/><rect x="0" y="0" width="240" height="190" fill="#526579"/><path d="M0 190L240 190L240 284L0 284Z" fill="#394654"/><path d="M0 190L82 142L158 142L240 190Z" fill="#607286"/><path d="M0 190L82 142V0H0Z" fill="#46596C"/><path d="M240 190L158 142V0H240Z" fill="#3E5062"/><rect x="105" y="35" width="88" height="80" rx="2" fill="#A9C9DB" stroke="#DDEBF2" stroke-width="3"/><path d="M149 36V114M106 75H192" stroke="#DDEBF2" stroke-width="2"/><path d="M107 113L148 75L192 113Z" fill="#88AFC5" fill-opacity=".45"/><rect x="22" y="137" width="68" height="50" rx="5" fill="#273746" stroke="#8295A7" stroke-width="2"/><rect x="30" y="145" width="52" height="8" rx="2" fill="#9BAEBC"/><rect x="31" y="160" width="50" height="19" rx="3" fill="#52697C"/><path d="M0 212H240M25 190L7 284M72 190L64 284M120 190V284M168 190L176 284M215 190L233 284" stroke="#607080" stroke-width="1" opacity=".55"/></g></pattern><clipPath id="master_svg1_19_2184"><rect x="0" y="0" width="240" height="284" rx="40"/></clipPath><clipPath id="master_svg2_19_2205"><path d="M0 15C9.81054792658386e-16 6.715728752538098 6.7157287525381015 -9.81054792658386e-16 15.000000000000002 0L225 0C233.2842712474619 0 240 6.7157287525381 240 15L240 30C240 30 240 30 240 30L0 30C0 30 0 30 0 30Z"/></clipPath><clipPath id="master_svg3_19_2211"><rect x="163" y="6" width="24" height="24" rx="0"/></clipPath><clipPath id="master_svg4_19_2214"><rect x="193" y="10" width="24" height="16" rx="0"/></clipPath><clipPath id="master_svg5_19_2241/13_9020/13_8915"><rect x="211" y="32" width="24" height="24" rx="0"/></clipPath><clipPath id="master_svg6_19_2190"><path d="M0 239C0 239 0 239 0 239L240 239C240 239 240 239 240 239L240 261.5C240 273.92640687119285 229.92640687119285 284 217.5 284L22.5 284C10.07359312880715 284 0 273.92640687119285 0 261.5Z"/><path d="M239,239L0,239L0,243.9999962C0,266.091391,17.908611,284,40.000008,284L200,284C222.0914,284,240,266.091391,240,243.9999962L240,239L239,239ZM239,240L0.99999952,240L0.9999975,243.9999952Q0.9999975,251.935184,4.0644016,259.18025Q7.0245895,266.178921,12.422835,271.577164Q17.821087,276.975414,24.819748,279.9356Q32.064812,283,40.000008,283L200,283.000008Q207.93518,283.000008,215.18027,279.9356Q222.17889,276.97543,227.57715,271.577164Q232.97545,266.178867,235.93561,259.180254Q239,251.935215,239,243.9999962L239,240Z" fill-rule="evenodd"/></clipPath><clipPath id="master_svg7_19_2229/19_0611/13_8915"><rect x="10" y="249" width="24" height="24" rx="0"/></clipPath><clipPath id="master_svg8_19_2223/19_0611"><rect x="84" y="249" width="24" height="24" rx="0"/></clipPath><clipPath id="master_svg9_19_2235/19_0611"><rect x="158" y="249" width="24" height="24" rx="0"/></clipPath><clipPath id="master_svga_19_2221"><rect x="235" y="93" width="100" height="8" rx="4"/></clipPath><clipPath id="master_svgb_19_2187"><rect x="235" y="134" width="32" height="32" rx="0"/></clipPath></defs><g clip-path="url(#master_svg1_19_2184)"><rect x="0" y="0" width="240" height="284" rx="40" fill="url(#master_svg0_13_4764)" fill-opacity="1"/><g clip-path="url(#master_svg2_19_2205)"><path d="M0 15C9.81054792658386e-16 6.715728752538098 6.7157287525381015 -9.81054792658386e-16 15.000000000000002 0L225 0C233.2842712474619 0 240 6.7157287525381 240 15L240 30C240 30 240 30 240 30L0 30C0 30 0 30 0 30Z" fill="#000000" fill-opacity="0.75"/><g><path d="M28.8080001,9.9359999L28.4240003,8.8799992L30.6000004,8.8799992L30.9840002,9.9359999L35.016001,9.9359999L35.400001,8.8799992L37.576,8.8799992L37.192,9.9359999L39.384001,9.9359999L39.384001,18.191999L34.0560007,18.191999L34.0560007,19.584L40.472001,19.584L40.472001,21.631999999999998L34.0560007,21.631999999999998L34.0560007,23.6L31.944000199999998,23.6L31.944000199999998,21.631999999999998L25.528,21.631999999999998L25.528,19.584L31.944000199999998,19.584L31.944000199999998,18.191999L26.6160001,18.191999L26.6160001,9.9359999L28.8080001,9.9359999ZM31.9760003,16.208L31.9760003,14.9919996L28.6800001,14.9919996L28.6800001,16.208L31.9760003,16.208ZM31.9760003,13.1039991L31.9760003,11.9199991L28.6800001,11.9199991L28.6800001,13.1039991L31.9760003,13.1039991ZM37.320001,16.208L37.320001,14.9919996L34.0240002,14.9919996L34.0240002,16.208L37.320001,16.208ZM37.320001,13.1039991L37.320001,11.9199991L34.0240002,11.9199991L34.0240002,13.1039991L37.320001,13.1039991ZM46.936001000000005,12.751999900000001L46.936001000000005,8.8799992L49.048,8.8799992L49.048,9.8079996L55.544001,9.8079996L55.544001,11.7599993L49.048,11.7599993L49.048,12.751999900000001L54.968,12.751999900000001L54.968,19.328L43.032,19.328L43.032,12.751999900000001L46.936001000000005,12.751999900000001ZM42.856001,19.951999999999998L45.144001,19.951999999999998L43.864000000000004,23.6L41.576,23.6L42.856001,19.951999999999998ZM52.888000000000005,17.424L52.888000000000005,14.7679996L45.111999999999995,14.7679996L45.111999999999995,17.424L52.888000000000005,17.424ZM46.408001,19.951999999999998L48.535999000000004,19.951999999999998L47.960001,23.6L45.832001000000005,23.6L46.408001,19.951999999999998ZM51.592000999999996,19.951999999999998L52.167998999999995,23.6L50.040001000000004,23.6L49.464000999999996,19.951999999999998L51.592000999999996,19.951999999999998ZM55.144001,19.951999999999998L56.424,23.6L54.136002000000005,23.6L52.856001,19.951999999999998L55.144001,19.951999999999998ZM67.720001,9.4399996L67.720001,19.264L66.487999,19.264Q67.896,20.768,68.37599900000001,23.6L66.552002,23.6Q66.279999,21.584,65.16,20.416Q64.695999,21.648,63.743999,22.52Q62.792,23.392,61.431999,23.76L61.431999,21.648Q62.232002,21.424,62.824001,20.872Q63.416,20.32,63.736,19.567999999999998Q64.056,18.816000000000003,64.056,18.016L64.056,12.3519993L65.576,12.3519993L65.576,18.016Q65.576,18.32,65.560001,18.464L66.056,18.848L66.056,11.4559994L63.576,11.4559994L63.576,19.424L61.911999,19.424L61.928001,9.4399996L67.720001,9.4399996ZM59.992001,23.6Q61.127998,20.768,61.624001,16.784L59.48,16.784Q59.048,20.16,57.655998,23.6L59.992001,23.6ZM61.624001,16.048000000000002L61.624001,13.903999299999999L57.799999,12.96L57.799999,15.1359997L61.624001,16.048000000000002ZM61.591999,12.2719994L61.591999,10.0959997L58.119999,9.1999998L58.119999,11.375999499999999L61.591999,12.2719994ZM68.26400000000001,9.999998999999999L69.720001,9.999998999999999L69.720001,20.352L68.26400000000001,20.352L68.26400000000001,9.999998999999999ZM68.87200200000001,21.584L70.248001,21.584L70.248001,9.1999998L71.95999900000001,9.1999998L71.95999900000001,23.6L68.87200200000001,23.6L68.87200200000001,21.584ZM88.328003,11.5359993L82.424,11.5359993L82.424,13.2319994L87.816002,13.2319994L87.816002,19.216L82.424,19.216L82.424,21.264L88.328003,21.264L88.328003,23.312L80.344002,23.312L80.344002,9.487999L88.328003,9.487999L88.328003,11.5359993ZM73.639999,21.296L74.119999,21.232L74.119999,16.096L75.768002,16.096L75.768002,21.024L76.52000000000001,20.912L76.52000000000001,15.1040001L74.279999,15.1040001L74.279999,9.3279991L79.52799999999999,9.3279991L79.52799999999999,15.1040001L78.408001,15.1040001L78.408001,16.624000000000002L79.383999,16.624000000000002L79.383999,18.576L78.408001,18.576L78.408001,20.672L79.848,20.48L79.848,22.464001L73.639999,23.280001L73.639999,21.296ZM77.70399900000001,13.1999998L77.70399900000001,11.2319994L76.104,11.2319994L76.104,13.1999998L77.70399900000001,13.1999998ZM85.799999,17.232L85.799999,15.2159996L82.424,15.2159996L82.424,17.232L85.799999,17.232Z" fill="#FFFFFF" fill-opacity="1"/></g><g clip-path="url(#master_svg3_19_2211)"><path d="M163.6894530057907,12.9965901C166.7802700057907,10.4970398,170.7152599057907,9,174.99990000579072,9C179.2845000057907,9,183.2194990057907,10.4970398,186.3104000057907,12.9965901L184.42530000579072,15.330490099999999C181.8496000057907,13.247530000000001,178.5704000057907,12,174.99990000579072,12C171.4293698057907,12,168.15020980579072,13.247530000000001,165.5745299057907,15.330490099999999L163.6894530057907,12.9965901ZM166.8312401057907,16.8864002C169.0634998057907,15.0811901,171.9054402057907,14,174.99990000579072,14C178.0944000057907,14,180.9363000057907,15.0811901,183.16860000579072,16.8864002L181.2835010057907,19.2203C179.5664000057907,17.8317003,177.3802990057907,17,174.99990000579072,17C172.61954010579072,17,170.4334401057907,17.8317003,168.7163199057907,19.2203L166.8312401057907,16.8864002ZM169.97304000579072,20.7763C171.3467301057907,19.665300000000002,173.09560000579071,19,174.99990000579072,19C176.9041990057907,19,178.65310000579072,19.665300000000002,180.0268000057907,20.7763L178.1417000057907,23.110201C177.28310000579071,22.4158,176.19010000579073,22,174.99990000579072,22C173.80970000579072,22,172.71666990579072,22.4158,171.85811030579072,23.110201L169.97304000579072,20.7763ZM173.1148003057907,24.6661C173.63000000579072,24.249499999999998,174.28580000579072,24,174.99990000579072,24C175.71400000579072,24,176.3697990057907,24.249499999999998,176.88500000579072,24.6661L174.99990000579072,27L173.1148003057907,24.6661Z" fill="#EFEFEF" fill-opacity="1"/></g><g clip-path="url(#master_svg4_19_2214)"><rect x="193" y="10" width="24" height="16" rx="0" fill="#000000" fill-opacity="0"/><path d="M194.4321673734375,10.100738149146094L194.3797894734375,10.117315722246094L194.2890114734375,10.137233007246094L194.1518233734375,10.173399701246094L194.0716705934375,10.200410772246094L193.9457601934375,10.262191312246093L193.8324099734375,10.323971872246094L193.8025481134375,10.345705692246094L193.7468742134375,10.390325252246093L193.5831485434375,10.555943522246094L193.4544483134375,10.715059752246093L193.3949664234375,10.802081232246094L193.3142004334375,10.917307142246093L193.2163745334375,11.158005102246094L193.1981334234375,11.188896202246093L193.1805616634375,11.240379202246094L193.1512791364375,11.355245502246094L193.1212991434375,11.552008402246093L193.0976751354375,11.703876702246093L193.0831632434375,13.678954802246093L193.0794677734375,17.994941702246095L193.0858631306375,22.309331802246092L193.1016124694375,24.279623802246093L193.1186498814375,24.324635802246092L193.1280713604375,24.452747802246094L193.1380721924375,24.582262802246092L193.1550196034375,24.652895802246093L193.1751112644375,24.713172802246092L193.1995058734375,24.792795802246093L193.2768632634375,25.000235802246095L193.3348658134375,25.096336802246093L193.4135844134375,25.219897802246095L193.4881519034375,25.328528802246094L193.5986841334375,25.460230802246095L193.7059708834375,25.571301802246094L193.7708019034375,25.618037802246093L193.8262677234375,25.649270802246093L193.9432852834375,25.729532802246094L194.0202096134375,25.770620802246093L194.0824644734375,25.796516802246096L194.1335655734375,25.816687802246093L194.3195763734375,25.871600802246093L194.4689137734375,25.906346802246095L203.9103797734375,25.906346802246095L211.6341587734375,25.902899802246093L213.0123477734375,25.897154802246092L213.3747977734375,25.887448802246094L213.4792267734375,25.863167802246096L213.5528107734375,25.851489802246093L213.6105267734375,25.827148802246093L213.6803567734375,25.796085802246093L213.7585657734375,25.761889802246095L213.8298817734375,25.727994802246094L213.8568747734375,25.708158802246096L213.9056417734375,25.679405802246094L213.9464147734375,25.652306802246095L213.9830817734375,25.625128802246095L214.0634557734375,25.56210980224609L214.12783477343748,25.50809480224609L214.1982577734375,25.425719802246093L214.2630097734375,25.343458802246094L214.3122267734375,25.291574802246096L214.3914847734375,25.173857802246093L214.4651587734375,25.047223802246094L214.4976367734375,24.968581802246092L214.5143467734375,24.932321802246094L214.5389177734375,24.872295802246093L214.5613747734375,24.808030802246094L214.5832727734375,24.72105580224609L214.6140227734375,24.615822802246093L214.64952677343751,24.52523680224609L214.6690387734375,24.309420802246095L214.6835517734375,22.934025802246094L214.6896767734375,21.519942802246092L215.1459347734375,21.513077802246094L215.5058627734375,21.503968802246092L215.6167277734375,21.489051802246095L215.6985397734375,21.47189180224609L215.8111417734375,21.448961802246096L215.9712337734375,21.374149802246095L216.0312687734375,21.34832980224609L216.1736407734375,21.264769802246093L216.2164797734375,21.233691802246092L216.3151777734375,21.141562802246092L216.4099597734375,21.063991802246093L216.4409067734375,21.046038802246095L216.4683857734375,21.011723802246095L216.6657127734375,20.721067802246093L216.7286037734375,20.607822802246094L216.7573737734375,20.52479480224609L216.7788657734375,20.455773802246092L216.79536477343748,20.406819802246094L216.8201117734375,20.324823802246094L216.8467907734375,20.245753802246092L216.8627037734375,20.190428802246096L216.8725797734375,20.061809502246092L216.8823907734375,19.93186380224609L216.8992427734375,19.886078802246093L216.9138487734375,19.282885502246096L216.9205267734375,17.975543002246095L216.9181177734375,16.670338202246093L216.9054677734375,16.073558802246094L216.8768707734375,15.926948102246094L216.8497107734375,15.768943802246094L216.8308677734375,15.691315202246095L216.7981317734375,15.568589202246095L216.7492067734375,15.458604302246094L216.7219197734375,15.388970802246094L216.6667877734375,15.292866702246094L216.6044427734375,15.190888402246093L216.5634617734375,15.114114802246092L216.4287297734375,14.957496602246094L216.2997147734375,14.821857502246093L216.2223737734375,14.766105202246095L216.1824377734375,14.739654502246093L216.0339737734375,14.654842402246093L215.9771197734375,14.619248902246094L215.9247477734375,14.593250702246094L215.8419337734375,14.559052902246094L215.7803307734375,14.532771102246095L215.7102277734375,14.525160302246093L215.6112997734375,14.508348902246095L215.4875947734375,14.493836402246094L215.13777377343752,14.484323002246093L214.6896767734375,14.476984002246095L214.6838547734375,13.069764602246094L214.6762127734375,11.951023702246093L214.6634887734375,11.632557602246093L214.6489407734375,11.517068302246093L214.6430087734375,11.437859802246093L214.6212557734375,11.375442902246094L214.5852427734375,11.273778002246093L214.5606227734375,11.191403902246094L214.5442597734375,11.132399602246094L214.5216307734375,11.076400102246094L214.4906847734375,11.002472282246094L214.4247667734375,10.867932382246094L214.2948477734375,10.684858142246094L214.1452787734375,10.510059352246094L214.0204357734375,10.400347712246093L213.93239777343751,10.336215272246093L213.89017277343748,10.310241742246093L213.8579887734375,10.290350992246093L213.8030627734375,10.254525722246093L213.7312507734375,10.219585532246093L213.6811577734375,10.200495292246094L213.5996817734375,10.166221387246093L213.5355377734375,10.139916382246094L213.4670047734375,10.131899412246094L213.3820417734375,10.114604173246093L203.9448247734375,10.095359802246094L194.4321673734375,10.100738149146094ZM211.8861367734375,12.746611402246094L211.9177757734375,12.774870402246094L212.0578287734375,12.827351102246094L212.1210417734375,12.866982002246093L212.1510067734375,12.891288002246094L212.2347257734375,12.983406102246093L212.3290807734375,13.104230902246094L212.3623577734375,13.170027302246094L212.3922577734375,13.258039902246093L212.4142687734375,13.338702002246094L212.4317207734375,13.385530702246093L212.4460717734375,14.822043402246095L212.4513527734375,17.963645902246093L212.4472577734375,21.113558802246093L212.4334597734375,22.574997802246095L212.3634607734375,22.803731802246094L212.3158167734375,22.891263802246094L212.2746007734375,22.957707802246095L212.2197797734375,23.031777802246094L212.1456297734375,23.099124802246095L212.1172927734375,23.13376480224609L212.0788687734375,23.168382802246093L212.0069067734375,23.195076802246092L211.9370707734375,23.22316380224609L211.8896807734375,23.251330802246095L209.37978177343751,23.267472802246093L203.8829977734375,23.27290380224609L198.3862414734375,23.267589802246093L195.8764266734375,23.251498802246093L195.8184635734375,23.222357802246094L195.7500102734375,23.197708802246094L195.6846110734375,23.156285802246096L195.5332486734375,22.99994180224609L195.4271318734375,22.860930802246095L195.3854636734375,22.752557802246095L195.3388681734375,22.603027802246096L195.3213581734375,21.141383802246093L195.3137197734375,17.994988002246096L195.3171059734375,14.853289102246094L195.3326470734375,13.405746502246094L195.3572723734375,13.330615302246095L195.3816668734375,13.248241202246094L195.4138066734375,13.165867102246093L195.5154800734375,13.004550002246093L195.5801927734375,12.925180702246093L195.6205618734375,12.891288002246094L195.6517512734375,12.869494702246094L195.7235569734375,12.818858602246094L195.8337065734375,12.773577702246094L195.8811628734375,12.753890802246094L195.9160814734375,12.736474502246093L198.4390353734375,12.727022202246093L203.9240747734375,12.726818302246095L209.3976287734375,12.733976802246094L211.8861367734375,12.746611402246094Z" fill="#FFFFFF" fill-opacity="1"/></g></g><g><path d="M172.488,44.576000199999996Q172.3560001,46.976,171.48000002,49.712L173.184,49.712Q173.8559999,47.432,174.0480001,44.576000199999996L172.488,44.576000199999996ZM174.1200001,44.0120001L174.1200001,42.4159999L171.588,41.7079997L171.588,43.3280001L174.1200001,44.0120001ZM174.096,41.1799998L174.096,39.5599995L171.82800001,38.8879995L171.82800001,40.5079999L174.096,41.1799998ZM174.0120001,49.688Q174.444,48.56,174.6719999,47.696Q174.9000001,46.832,174.96,45.8719997L174.3600001,45.8719997L174.3600001,44.4559999L175.9440002,44.4559999L175.9440002,43.9039998L174.52800009999999,43.9039998L174.52800009999999,39.2600002L175.9320002,39.2600002L176.0279999,38.7320004L177.4920001,38.7320004L177.3959999,39.2600002L178.4040003,39.2600002L178.4040003,42.632Q178.8720002,40.8080001,178.9679999,38.816L180.3719997,38.816Q180.3599997,39.2480001,180.2880001,40.0880003L182.508,40.0880003L182.508,41.6240001L182.136,41.6240001Q182.04,44.1799998,181.476,46.0640001L182.628,49.688L181.26,49.688L180.7440004,48.019999999999996Q180.3719997,48.872,179.9400005,49.688L177.0840001,49.688L177.0840001,47.852000000000004L176.1480002,47.852000000000004Q175.9440002,48.74,175.6079998,49.688L174.0120001,49.688ZM177.132,42.7639999L177.132,42.092L175.8000002,42.092L175.8000002,42.7639999L177.132,42.7639999ZM177.132,41.072L177.132,40.4239998L175.8000002,40.4239998L175.8000002,41.072L177.132,41.072ZM178.4159999,46.46L178.4159999,49.544Q178.9920001,48.524,179.3459997,47.846000000000004Q179.6999998,47.168,179.9759998,46.4840002L178.836,43.184L178.4040003,43.184L178.4040003,43.9039998L177.408,43.9039998L177.408,44.4559999L178.7160001,44.4559999L178.7160001,45.8719997L176.4120002,45.8719997Q176.388,46.2560005,176.3639998,46.46L178.4159999,46.46ZM180.6120005,44.3959999Q180.8640003,43.184,180.9359999,41.6240001L180,41.6240001L179.8920002,42.1999998L180.6120005,44.3959999ZM183.6,48.14Q184.98,47.672,185.79,46.778Q186.6,45.8839998,186.708,44.3839998L183.48,44.3839998L183.48,42.836L188.220001,42.836L188.220001,38.7200003L189.780001,38.7200003L189.780001,42.836L194.52,42.836L194.52,44.3839998L191.57999999999998,44.3839998L191.57999999999998,47.972L194.52,47.972L194.52,49.519999999999996L190.02,49.519999999999996L190.02,44.3839998L188.243999,44.3839998Q188.136,46.532,186.912,47.876Q185.688,49.22,183.6,49.82L183.6,48.14ZM185.952,39.0199995L186.792,42.0679998L185.16,42.0679998L184.32,39.0199995L185.952,39.0199995ZM192.048,39.0199995L193.68,39.0199995L192.84,42.0679998L191.208,42.0679998L192.048,39.0199995Z" fill="#000000" fill-opacity="1"/></g><g clip-path="url(#master_svg5_19_2241/13_9020/13_8915)"><path d="M219,36C214.5817201,36,211,39.5817201,211,44C211,48.4183,214.5817201,52,219,52L227,52C231.41830099999999,52,235,48.4183,235,44C235,39.5817201,231.41830099999999,36,227,36L219,36ZM213,44C213,40.6862898,215.6862898,38,219,38L227,38C230.3137,38,233,40.6862898,233,44C233,47.3137,230.3137,50,227,50L219,50C215.6862898,50,213,47.3137,213,44ZM219,40C216.7908602,40,215,41.7908602,215,44C215,46.2091,216.7908602,48,219,48C221.2091,48,223,46.2091,223,44C223,41.7908602,221.2091,40,219,40Z" fill-rule="evenodd" fill="#000000" fill-opacity="1"/></g><g clip-path="url(#master_svg6_19_2190)"><path d="M0 239C0 239 0 239 0 239L240 239C240 239 240 239 240 239L240 261.5C240 273.92640687119285 229.92640687119285 284 217.5 284L22.5 284C10.07359312880715 284 0 273.92640687119285 0 261.5Z" fill="#000000" fill-opacity="0.75"/><g clip-path="url(#master_svg7_19_2229/19_0611/13_8915)"><path d="M22,252C17.0294399,252,13,256.0294399,13,261C13,265.9706,17.0294399,270,22,270C26.970599999999997,270,31,265.9706,31,261C31,256.0294399,26.970599999999997,252,22,252C22,252,22,252,22,252ZM11,261C11,254.92487,15.92487,250,22,250C28.0751,250,33,254.92487,33,261C33,267.0751,28.0751,272,22,272C15.92487,272,11,267.0751,11,261C11,261,11,261,11,261ZM22,254C22.552300000000002,254,23,254.4477201,23,255C23,255,23,260.382,23,260.382C23,260.382,26.447200000000002,262.1056,26.447200000000002,262.1056C26.941200000000002,262.3526,27.141399,262.9532,26.894399999999997,263.4472C26.647399999999998,263.9412,26.046799999999998,264.1414,25.552799999999998,263.8944C25.552799999999998,263.8944,21.552799999999998,261.8944,21.552799999999998,261.8944C21.214,261.725,21,261.3788,21,261C21,261,21,255,21,255C21,254.4477201,21.447699999999998,254,22,254C22,254,22,254,22,254Z" fill-rule="evenodd" fill="#FFFFFF" fill-opacity="1"/></g><g><path d="M42.48000002,268.6Q43.3280001,266.696,43.664,264.896Q44,263.096,44,260.7759991L44,254.6959991L57.200001,254.6959991L57.200001,256.7599993L46.0640001,256.7599993L46.0640001,260.7759991Q46.0640001,262.983999,45.7840002,264.88Q45.5040002,266.776,44.8640001,268.6L42.48000002,268.6ZM46.3040004,266.552Q47.7760005,265.96,48.4880004,264.792Q49.2000003,263.624,49.2000003,261.672L49.2000003,261.336L46.6880002,261.336L46.6880002,259.2880001L49.2000003,259.2880001L49.2000003,257.2399998L51.2480001,257.2399998L51.2480001,259.2880001L56.944,259.2880001L56.944,268.6L52.736000000000004,268.6L52.736000000000004,266.552L54.896001,266.552L54.896001,261.336L51.2480001,261.336L51.2480001,261.736Q51.2480001,264.344,49.9920006,266.168Q48.7360005,267.992001,46.3040004,268.76L46.3040004,266.552ZM67.024,253.8799992L67.024,254.9199991L72.688,254.9199991L72.688,261.351999L66.976002,261.351999Q66.799999,262.856,66.240002,264.007999L73.200001,266.472L73.200001,268.68L65.040001,265.784Q63.968,266.952,62.384001,267.672001Q60.799999,268.392,58.799999,268.68L58.799999,266.472Q61.167998999999995,266.168,62.720000999999996,264.968L59.84,263.944L59.84,261.736L64.208,263.288Q64.720001,262.36,64.880001,261.351999L59.312,261.351999L59.312,254.9199991L64.976,254.9199991L64.976,253.8799992L67.024,253.8799992ZM64.976,259.3999996L64.976,256.8719997L61.391999999999996,256.8719997L61.391999999999996,259.3999996L64.976,259.3999996ZM70.608002,259.3999996L70.608002,256.8719997L67.024,256.8719997L67.024,259.3999996L70.608002,259.3999996Z" fill="#FFFFFF" fill-opacity="1"/></g><g clip-path="url(#master_svg8_19_2223/19_0611)"><path d="M89,253C88.7347801,253,88.4804299,253.10536,88.2928901,253.2928901C88.10536,253.4804299,88,253.7347801,88,254C88,254,88,268,88,268C88,268.2652,88.10536,268.5196,88.2928901,268.7071C88.4804299,268.8946,88.7347801,269,89,269C89,269,90,269,90,269C90,269,90,262,90,262C90,261.4477,90.4477201,261,91,261C91,261,101,261,101,261C101.5523,261,102,261.4477,102,262C102,262,102,269,102,269C102,269,103,269,103,269C103.2652,269,103.5196,268.8946,103.7071,268.7071C103.8946,268.5196,104,268.2652,104,268C104,268,104,257.4142098,104,257.4142098C104,257.4142098,99.5858,253,99.5858,253C99.5858,253,92,253,92,253C92,253,92,256,92,256C92,256,99,256,99,256C99.5523,256,100,256.4477201,100,257C100,257.5522799,99.5523,258,99,258C99,258,91,258,91,258C90.4477201,258,90,257.5522799,90,257C90,257,90,253,90,253C90,253,89,253,89,253C89,253,89,253,89,253ZM89,251C88.20435,251,87.44129,251.31606999,86.87867999,251.87867999C86.31606999,252.44129,86,253.20435,86,254C86,254,86,268,86,268C86,268.7957,86.31606999,269.558701,86.87867999,270.1213C87.44129,270.683901,88.20435,271,89,271C89,271,103,271,103,271C103.7957,271,104.558701,270.683901,105.1213,270.1213C105.68390099999999,269.558701,106,268.7957,106,268C106,268,106,257,106,257C106,256.7347798,105.8946,256.4804301,105.7071,256.2928901C105.7071,256.2928901,100.7071,251.29289299,100.7071,251.29289299C100.5196,251.105357,100.2652,251,100,251C100,251,89,251,89,251C89,251,89,251,89,251ZM100,269C100,269,100,263,100,263C100,263,92,263,92,263C92,263,92,269,92,269C92,269,100,269,100,269C100,269,100,269,100,269Z" fill-rule="evenodd" fill="#FFFFFF" fill-opacity="1"/></g><g><path d="M130.400001,254.3599997L130.400001,260.1519995L127.088,260.1519995L127.088,261.639999L131.248001,261.639999L131.248001,263.656L129.6,263.656Q130.144001,266.072,131.472001,268.6L129.328001,268.6Q128.240001,266.248,127.744,263.656L127.088,263.656L127.088,268.615999L125.0720005,268.615999L125.0720005,263.656L124.4960003,263.656Q124,266.248,122.9120002,268.6L120.7840004,268.6Q122.1120005,266.072,122.6560001,263.656L121.0080004,263.656L121.0080004,261.639999L125.0720005,261.639999L125.0720005,260.1519995L121.76000020000001,260.1519995L121.76000020000001,254.3599997L130.400001,254.3599997ZM116.60800004,259.4960003Q118.4640002,257.3679991,119.2,254.1999998L121.2960005,254.1999998Q120.9120002,256.3759995,120.0960002,258.1999998L120.0960002,268.6L118.0320001,268.6L118.0320001,261.4Q117.4080001,262.12,116.60800004,262.792L116.60800004,259.4960003ZM128.336,258.2799997L128.336,256.2479992L123.8240004,256.2479992L123.8240004,258.2799997L128.336,258.2799997ZM132.639999,261.448Q135.200001,259.7199993,136.4,257.0799999L132.799999,257.0799999L132.799999,255.0319996L137.120001,255.0319996Q137.264,254.4719992,137.360001,253.8799992L139.328001,253.8799992Q139.280001,254.5199995,139.167999,255.0319996L147.200001,255.0319996L147.200001,257.0799999L138.624001,257.0799999Q137.824001,259.2719994,136.368,260.9680004L136.368,268.6L134.304001,268.6L134.304001,262.888Q133.472,263.48,132.639999,263.912L132.639999,261.448ZM137.296001,262.264L142.208,262.264Q142.768002,261.416,143.392,260.2479992L139.072001,260.2479992L139.072001,258.2639999L146.368,258.2639999Q145.568001,260.4239998,144.448002,262.264L147.375999,262.264L147.375999,264.28L143.968,264.28L143.968,268.6L139.856001,268.6L139.856001,266.584L141.903999,266.584L141.903999,264.28L137.296001,264.28L137.296001,262.264Z" fill="#FFFFFF" fill-opacity="1"/></g><g clip-path="url(#master_svg9_19_2235/19_0611)"><path d="M172.2929,252.29289299C172.6834,251.902368903,173.3166,251.902368903,173.7071,252.29289299C173.7071,252.29289299,178.7071,257.2928901,178.7071,257.2928901C179.097601,257.6834202,179.097601,258.3165798,178.7071,258.7071099C178.7071,258.7071099,173.7071,263.7071,173.7071,263.7071C173.3166,264.0976,172.6834,264.0976,172.2929,263.7071C171.9024,263.3166,171.9024,262.6834,172.2929,262.2929C172.2929,262.2929,175.5858,259,175.5858,259C175.5858,259,166,259,166,259C165.20435,259,164.4412899,259.3160701,163.87868,259.8786802C163.3160701,260.4412899,163,261.2043505,163,262C163,262,163,269,163,269C163,269.552299,162.5522799,270,162,270C161.44771501,270,161,269.552299,161,269C161,269,161,262,161,262C161,260.6739197,161.526784,259.4021502,162.46447,258.4644699C163.4021499,257.5267801,164.6739199,257,166,257C166,257,175.5858,257,175.5858,257C175.5858,257,172.2929,253.70711,172.2929,253.70711C171.9024,253.3165801,171.9024,252.68341702,172.2929,252.29289299C172.2929,252.29289299,172.2929,252.29289299,172.2929,252.29289299Z" fill-rule="evenodd" fill="#FFFFFF" fill-opacity="1"/></g><g><path d="M197.4080005,265.736Q199.2320004,264.184,200.496,262.664L198.3520002,259.5919991L197.7600002,259.5919991L197.7600002,259.9440002Q197.7600002,261.544,197.4960003,262.936Q197.2320004,264.328,196.6240005,265.736L194.2720003,265.736Q195.1200004,264.344,195.4400001,263.016Q195.7600002,261.688,195.7600002,259.9440002L195.7600002,254.407999Q200.304001,254.407999,204.736001,254.0719995L204.736001,255.99199959999999Q201.504001,256.2639999,197.7600002,256.3119993L197.7600002,257.7839994L205.200001,257.7839994Q204.336,260.407999,202.848001,262.552L205.200001,265.736L202.944,265.736L201.696,264.056Q200.896001,264.968,200.048,265.736L197.4080005,265.736ZM190.48000002,258.7599993L194.4480004,258.7599993Q194.4480004,260.8239994,194.3040004,262.455999Q194.1600003,264.087999,193.8080001,265.704Q194.5280004,266.104,195.4000001,266.272Q196.2720003,266.44,197.5200005,266.44L205.360001,266.44L205.360001,268.440001L197.5200005,268.440001Q196.0480003,268.440001,195.072,268.271999Q194.0960002,268.104,193.3120003,267.704Q193.2,268.087999,193.1520002,268.200001Q193.072,268.504,193.0400002,268.6L190.83200002,268.6Q191.5840001,266.504,191.9360001,264.712Q192.2880001,262.92,192.368,260.8400002L190.48000002,260.8400002L190.48000002,258.7599993ZM193.2960002,254.1999998L194.4000001,257.6719999L192.24,257.6719999L191.136,254.1999998L193.2960002,254.1999998ZM201.648001,261.096Q202.144001,260.3759995,202.528001,259.5919991L200.624001,259.5919991L201.648001,261.096ZM220.624001,254.6479998L220.624001,268.152L207.375999,268.152L207.375999,254.6479998L220.624001,254.6479998ZM218.560001,266.104L218.560001,256.6959991L209.440001,256.6959991L209.440001,266.104L218.560001,266.104ZM210.720001,257.9439993L217.280001,257.9439993L217.280001,264.856L210.720001,264.856L210.720001,257.9439993ZM215.248001,262.823999L215.248001,259.9599991L212.752001,259.9599991L212.752001,262.823999L215.248001,262.823999Z" fill="#FFFFFF" fill-opacity="1"/></g><path d="M239,239L0,239L0,243.9999962C0,266.091391,17.908611,284,40.000008,284L200,284C222.0914,284,240,266.091391,240,243.9999962L240,239L239,239ZM239,240L0.99999952,240L0.9999975,243.9999952Q0.9999975,251.935184,4.0644016,259.18025Q7.0245895,266.178921,12.422835,271.577164Q17.821087,276.975414,24.819748,279.9356Q32.064812,283,40.000008,283L200,283.000008Q207.93518,283.000008,215.18027,279.9356Q222.17889,276.97543,227.57715,271.577164Q232.97545,266.178867,235.93561,259.180254Q239,251.935215,239,243.9999962L239,240Z" fill-rule="evenodd" fill-opacity="0" stroke-opacity="1" stroke="#000000" fill="none" stroke-width="1"/></g><g transform="matrix(0,1,-1,0,328,-142)" clip-path="url(#master_svga_19_2221)"><rect x="235" y="93" width="100" height="8" rx="4" fill="#FFFFFF" fill-opacity="0.4000000059604645"/><rect x="236" y="94" width="98" height="6" rx="3" fill-opacity="0" stroke-opacity="0.6000000238418579" stroke="#000000" fill="none" stroke-width="2"/></g><g transform="matrix(0,1,-1,0,369,-101)"><g clip-path="url(#master_svgb_19_2187)"><ellipse cx="239" cy="138" rx="4" ry="4" fill="#BAE0FF" fill-opacity="1"/><ellipse cx="239" cy="138" rx="3" ry="3" fill-opacity="0" stroke-opacity="0.8799999952316284" stroke="#000000" fill="none" stroke-width="2"/></g></g><g><path d="M9.1520001,41.119999899999996L16.1280003,41.119999899999996L16.1280003,51.6L14.1120005,51.6L14.1120005,49.664L11.1680002,49.664L11.1680002,51.6L9.1520001,51.6L9.1520001,41.119999899999996ZM8.80000001,37.999999L11.7760003,37.999999L11.4240003,37.0079994L13.600000399999999,37.0079994L13.9520001,37.999999L18.048000000000002,37.999999L18.400001,37.0079994L20.576,37.0079994L20.224001,37.999999L23.200001,37.999999L23.200001,40.0159998L8.80000001,40.0159998L8.80000001,37.999999ZM14.1120005,47.728L14.1120005,46.432L11.1680002,46.432L11.1680002,47.728L14.1120005,47.728ZM14.1120005,44.496L14.1120005,43.1040001L11.1680002,43.1040001L11.1680002,44.496L14.1120005,44.496ZM17.4400005,41.552L19.440001000000002,41.552L19.440001000000002,48.448L17.4400005,48.448L17.4400005,41.552ZM18.64,49.552L20.832000999999998,49.552L20.832000999999998,40.8639994L22.880001,40.8639994L22.880001,51.6L18.64,51.6L18.64,49.552ZM24.639999,44.096000000000004L26.896,44.096000000000004L26.896,39.5039997L25.087999,39.5039997L25.087999,37.6639996L26.896,37.6639996L26.896,36.8799992L28.976,36.8799992L28.976,37.6639996L35.024,37.6639996L35.024,36.8799992L37.104,36.8799992L37.104,37.6639996L38.912001000000004,37.6639996L38.912001000000004,39.5039997L37.104,39.5039997L37.104,44.096000000000004L39.360001,44.096000000000004L39.360001,46L37.552002,46Q38.16,46.96,39.440000999999995,47.44L39.440000999999995,49.504Q37.6,48.864000000000004,36.528,47.712L36.528,48.8L32.976002,48.8L32.976002,49.696L38.688,49.696L38.688,51.552L25.296,51.552L25.296,49.696L31.024,49.696L31.024,48.8L27.472,48.8L27.472,47.712Q26.4,48.864000000000004,24.559999,49.504L24.559999,47.44Q25.84,46.96,26.448,46L24.639999,46L24.639999,44.096000000000004ZM31.024,46.992000000000004L31.024,46.384L32.976002,46.384L32.976002,46.992000000000004L35.968,46.992000000000004Q35.695999,46.608000000000004,35.456001,46L28.544001,46Q28.304001,46.608000000000004,28.032,46.992000000000004L31.024,46.992000000000004ZM35.024,44.32L35.024,43.6800003L28.976,43.6800003L28.976,44.32L35.024,44.32ZM35.024,42.1599998L35.024,41.4879999L28.976,41.4879999L28.976,42.1599998L35.024,42.1599998ZM35.024,39.9519997L35.024,39.3439999L28.976,39.3439999L28.976,39.9519997L35.024,39.9519997ZM44.880001,42.1919994Q46.127998,40.224000000000004,46.704002,37.1839991L48.576,37.1839991Q48.416,38.1599998,48.304001,38.6719999L50.16,38.6719999L50.144001,37.2319994L52.192001,37.2319994L52.192001,38.6719999L55.071999,38.6719999L55.071999,40.6719999L52.192001,40.6719999L52.192001,42.2559996L54.912003,42.2559996L54.912003,44.256L52.192001,44.256L52.192001,45.84L54.912003,45.84L54.912003,47.84L52.192001,47.84L52.192001,49.391999999999996L55.232002,49.391999999999996L55.232002,51.391999999999996L45.647999,51.391999999999996L45.647999,44.511999Q45.344002,44.896,44.880001,45.36L44.880001,42.1919994ZM40.655998,50.639999Q42.015999,46.944,42.48,43.071999500000004L44.560001,43.071999500000004Q44.048,47.519999999999996,42.928001,50.639999L40.655998,50.639999ZM42.928001,37.6959991L44.512001,42.1280003L42.383999,42.1280003L40.799999,37.6959991L42.928001,37.6959991ZM50.288002,49.391999999999996L50.271999,47.84L47.695999,47.84L47.695999,49.391999999999996L50.288002,49.391999999999996ZM50.240002,45.84L50.223999,44.256L47.695999,44.256L47.695999,45.84L50.240002,45.84ZM50.208,42.2559996L50.192001,40.6719999L47.743999,40.6719999L47.695999,40.8319998L47.695999,42.2559996L50.208,42.2559996Z" fill="#000000" fill-opacity="1"/><path d="M25.896,44.096000000000004L24.639999,44.096000000000004L24.639999,46L26.448,46Q26.073738,46.59094,25.444843,46.999999Q25.05208,47.25547,24.559999,47.44L24.559999,49.504Q25.092108,49.318919,25.559999,49.091013000000004Q25.936956,48.9074,26.272213,48.696Q26.374031,48.631798,26.472,48.565034Q26.862555,48.298882,27.192001,47.992000000000004Q27.337996,47.856004999999996,27.472,47.712L27.472,48.8L31.024,48.8L31.024,49.696L25.296,49.696L25.296,51.552L38.688002,51.552L38.688002,49.696L32.976004,49.696L32.976004,48.8L36.528,48.8L36.528,47.712Q36.662003,47.856002000000004,36.807998999999995,47.992000000000004Q37.137449000000004,48.298884,37.528002,48.565036Q37.625959,48.63179,37.727789,48.696Q38.063049,48.907404,38.440000999999995,49.091013000000004Q38.907889999999995,49.318918,39.440000999999995,49.504L39.440000999999995,47.44Q38.947916,47.255468,38.555155,46.999999Q37.926266,46.590941,37.552004,46L39.360001,46L39.360001,44.096000000000004L37.104,44.096000000000004L37.104,39.5040002L38.911999,39.5040002L38.911999,37.6639996L37.104,37.6639996L37.104,36.8799994L35.024,36.8799994L35.024,37.6639996L28.976,37.6639996L28.976,36.8799994L26.896,36.8799994L26.896,37.6639996L25.087999,37.6639996L25.087999,39.5040002L26.896,39.5040002L26.896,44.096000000000004L25.896,44.096000000000004ZM27.896,38.6639996L27.896,45L27.976002,45L27.976002,37.8799994L27.896,37.8799994L27.896,38.6639996ZM36.024,38.6639996L36.024,45L36.104002,45L36.104002,37.8799994L36.024,37.8799994L36.024,38.6639996ZM31.024,46.992000000000004L31.024,46.384L32.976004,46.384L32.976004,46.992000000000004L35.968,46.992000000000004Q35.695999,46.608000000000004,35.456001,46L28.544001,46Q28.304001,46.608000000000004,28.032001,46.992000000000004L31.024,46.992000000000004ZM19.832002,49.552001000000004L18.64,49.552001000000004L18.64,51.6L22.880001,51.6L22.880001,40.8639994L20.832002,40.8639994L20.832002,49.552001000000004L19.832002,49.552001000000004ZM19.832002,40.0159998L23.200001999999998,40.0159998L23.200001999999998,37.9999993L20.224001,37.9999993L20.576,37.0079994L18.400001,37.0079994L18.048000000000002,37.9999993L13.9520001,37.9999993L13.600000399999999,37.0079994L11.4240005,37.0079994L11.7760005,37.9999993L8.80000001,37.9999993L8.80000001,40.0159998L19.832002,40.0159998ZM9.8000001,39.0159998L22.200001999999998,39.0159998L22.200001999999998,38.9999995L18.808075000000002,38.9999995L19.160074,38.0079994L19.106251,38.0079994L18.754251,38.9999995L13.245749499999999,38.9999995L12.8937497,38.0079994L12.8399282,38.0079994L13.1919284,38.9999995L9.8000001,38.9999995L9.8000001,39.0159998ZM21.832000999999998,41.8639994L21.832000999999998,50.552L19.64,50.552L19.64,50.6L21.880001999999998,50.6L21.880001999999998,41.8639994L21.832000999999998,41.8639994ZM13.1120005,49.664001L14.1120005,49.664001L14.1120005,51.6L16.1280003,51.6L16.1280003,41.1200004L9.1520001,41.1200004L9.1520001,51.6L11.1680002,51.6L11.1680002,49.664001L13.1120005,49.664001ZM10.1680002,50.6L10.1680002,42.119999899999996L10.152000000000001,42.119999899999996L10.152000000000001,50.6L10.1680002,50.6ZM15.1120009,42.119999899999996L15.1120009,50.6L15.1280003,50.6L15.1280003,42.119999899999996L15.1120009,42.119999899999996ZM44.154602,41.1280003L42.928001,37.6959991L40.799999,37.6959991L41.157398,38.6959991L42.363983,42.071999500000004L42.383999,42.1280003L44.512001,42.1280003L44.491985,42.071999500000004L44.229046,41.3362932L44.154602,41.1280003ZM43.092651,41.1280003L42.223454,38.6959991L42.219349,38.6959991L43.088547,41.1280003L43.092651,41.1280003ZM44.954865,42.071999500000004Q44.917747,42.1324806,44.880001,42.1920004L44.880001,45.36Q45.126884,45.113115,45.328457,44.888901000000004Q45.505737,44.691702,45.647999,44.511999L45.647999,51.392002000000005L55.232002,51.392002000000005L55.232002,49.391999999999996L52.192001,49.391999999999996L52.192001,47.84L54.912003,47.84L54.912003,45.840001L52.192001,45.840001L52.192001,44.256L54.912003,44.256L54.912003,42.2559996L52.192001,42.2559996L52.192001,40.6719999L55.072002,40.6719999L55.072002,38.6719999L52.192001,38.6719999L52.192001,37.2319996L50.144001,37.2319996L50.148888,37.6719997L50.155113,38.2319999L50.16,38.6719999L48.304001,38.6719999Q48.349129,38.4657016,48.402061,38.1839991Q48.445423,37.9532435,48.494003,37.6719997Q48.533298,37.444493800000004,48.576,37.1839991L46.704002,37.1839991Q46.235275,39.6578321,45.321545,41.4217801Q45.146378,41.7599373,44.954865,42.071999500000004ZM45.880001,44.2448L45.880001,43.1280003L45.931351,43.1280003L45.880001,42.9843302L45.880001,42.474597Q46.332211,41.7156858,46.695999,40.8253226L46.695999,50.391999999999996L46.647999,50.392002000000005L46.647999,44.511999L45.880001,44.2448ZM51.15517,38.2319999L51.171173,39.6719999L51.181957,39.6719999L51.192001,40.6668801L51.192001,38.2319999L51.15517,38.2319999ZM43.880001,47.261805Q44.133514,46.098698,44.329197,44.809195Q44.357296,44.624019000000004,44.384125,44.436814Q44.410095,44.255592,44.434944,44.072Q44.497791,43.607731799999996,44.553528,43.1280003Q44.556644,43.1011877,44.560001,43.071999500000004L42.48,43.071999500000004Q42.476685,43.099687599999996,42.47324,43.1280003Q42.069603,46.44878,41.006496,49.64Q40.839409,50.14156,40.656002,50.639999L42.928001,50.639999Q43.477058,49.110478,43.880001,47.261805ZM42.212303,49.64Q42.98772,47.239176,43.425648,44.072L43.355743,44.072Q42.941978,46.902387,42.058861,49.64L42.212303,49.64ZM35.024,39.3439999L28.976,39.3439999L28.976,39.9519997L35.024,39.9519997L35.024,39.3439999ZM50.197899,41.2559996L50.208,42.2559996L47.695999,42.2559996L47.695999,40.8320003L47.743999,40.6719999L50.192005,40.6719999L50.197899,41.2559996ZM35.024,41.4880004L28.976,41.4880004L28.976,42.1599998L35.024,42.1599998L35.024,41.4880004ZM17.4400005,41.552L17.4400005,48.448L19.440001000000002,48.448L19.440001000000002,41.552L17.4400005,41.552ZM14.1120005,44.104L14.1120005,44.496L11.1680002,44.496L11.1680002,43.1040001L14.1120005,43.1040001L14.1120005,44.104ZM35.024,43.6800003L28.976,43.6800003L28.976,44.32L35.024,44.32L35.024,43.6800003ZM50.2299,44.840001L50.240002,45.840001L47.695999,45.840001L47.695999,44.256L50.223999,44.256L50.2299,44.840001ZM14.1120005,47.432L14.1120005,47.728L11.1680002,47.728L11.1680002,46.432L14.1120005,46.432L14.1120005,47.432ZM50.277691,48.391999999999996L50.288002,49.391999999999996L47.695999,49.391999999999996L47.695999,47.84L50.271999,47.84L50.277691,48.391999999999996Z" fill-rule="evenodd" fill="#000000" fill-opacity="1"/></g><g><path d="M111.488,48.792Q112.7520001,47.736000000000004,113.6080003,46.896Q114.4640002,46.056,115.2480001,45.024Q116.0320001,43.9919996,116.0320001,43.223999Q116.0320001,42.4399996,115.4720001,42.0239992Q114.9120002,41.6079998,113.8880002,41.6719999Q113.2320001,41.7199993,112.536,41.9919996Q111.84,42.2639999,111.0880001,42.8559999L111.0880001,40.6799994Q111.8560001,40.1999998,112.7440002,39.8959999Q113.6320002,39.5919991,114.5120001,39.5919991Q116.3040004,39.5919991,117.3520002,40.4639997Q118.4000006,41.3359995,118.4000006,42.8399992Q118.4000006,44.184,117.6800003,45.271999Q116.9600005,46.36,115.9520001,47.312Q114.9440002,48.263999999999996,113.6640003,49.4L113.2,49.08L118.4800005,49.08L118.4800005,51L110.88000005,51L110.88000005,49.304L111.488,48.792ZM125.312,47.432L125.248001,47.432L122.816001,51L119.76000020000001,51L123.664001,45.448L119.6800003,39.7999992L122.70400000000001,39.7999992L125.248001,43.4639997L125.312,43.4639997L127.85600099999999,39.7999992L130.880001,39.7999992L126.912001,45.448L130.816002,51L127.744001,51L125.312,47.432Z" fill="#000000" fill-opacity="1"/></g><ellipse cx="120" cy="143" rx="2" ry="2" fill="#F10000" fill-opacity="1"/><g><rect x="77" y="163" width="82" height="30" rx="6" fill="#000000" fill-opacity="0.550000011920929"/><g><path d="M83.488,182.792Q84.7520001,181.736,85.6080003,180.89600000000002Q86.4640002,180.056,87.2480001,179.024Q88.0320001,177.99199959999999,88.0320001,177.223999Q88.0320001,176.4399996,87.4720001,176.0239992Q86.9120002,175.6079998,85.8880002,175.6719999Q85.2320001,175.7199993,84.536,175.99199959999999Q83.84,176.2639999,83.0880001,176.8559999L83.0880001,174.67999939999999Q83.8560001,174.1999998,84.7440002,173.8959999Q85.6320002,173.5919991,86.5120001,173.5919991Q88.3040004,173.5919991,89.3520002,174.4639997Q90.4000006,175.3359995,90.4000006,176.8399992Q90.4000006,178.184,89.6800003,179.271999Q88.9600005,180.36,87.9520001,181.312Q86.9440002,182.264,85.6640003,183.4L85.2,183.08L90.4800005,183.08L90.4800005,185L82.88000005,185L82.88000005,183.304L83.488,182.792ZM95.792001,185.208Q94.112,185.288,92.528001,184.552L92.528001,182.375999Q93.232,182.888,94.040001,183.088Q94.848001,183.288,95.648001,183.288Q96.544001,183.288,97.040001,182.848Q97.536001,182.408,97.536001,181.704Q97.536001,180.84,96.928001,180.431999Q96.320001,180.024,95.344001,180.024L93.744,180.024L93.744,178.1999998L95.184001,178.1999998Q96.144001,178.1999998,96.68,177.855999Q97.216002,177.5119991,97.200001,176.7599993Q97.184001,176.1679993,96.712001,175.8399992Q96.240001,175.5119991,95.440001,175.5119991Q94.864,175.5119991,94.160001,175.7439995Q93.456,175.9759998,92.880001,176.408L92.880001,174.2319994Q93.52,173.9279995,94.312,173.7599993Q95.104001,173.5919991,95.888,173.5919991Q97.552001,173.5919991,98.536001,174.3839998Q99.52,175.1759996,99.536001,176.53599930000001Q99.536001,177.3839998,99.08000200000001,178.0559998Q98.62400099999999,178.7279997,97.792001,179.112Q98.752001,179.464,99.328001,180.184Q99.904001,180.903999,99.904001,181.88Q99.904001,182.856,99.360001,183.608Q98.816002,184.36,97.904001,184.784Q96.992001,185.208,95.792001,185.208ZM108.592001,182.984L108.592001,185L106.224001,185L106.224001,182.984L101.440001,182.984L101.440001,181.48L105.696001,173.7999992L108.592001,173.7999992L108.592001,181.064L109.696001,181.064L109.696001,182.984L108.592001,182.984ZM106.272001,181.064L106.272001,176.4399996L103.77600100000001,181.064L106.272001,181.064ZM114.78399999999999,185.208Q112.944002,185.208,111.360003,184.664L111.360003,182.488Q112.912003,183.272,114.368004,183.288Q115.408001,183.288,115.992001,182.688Q116.576004,182.087999,116.576004,181.24Q116.576004,180.375999,115.960003,179.82399900000001Q115.344002,179.271999,114.400002,179.288Q113.216002,179.304,111.760002,179.89600000000002L111.920002,173.7999992L118.272003,173.7999992L118.272003,175.7199993L114.240002,175.7199993L114.17600300000001,177.671999Q114.83200099999999,177.5760002,115.408001,177.6399994Q116.43200300000001,177.7199993,117.280003,178.1919994Q118.12800200000001,178.6639996,118.536003,179.488Q118.944,180.312,118.944,181.351999Q118.944,182.52,118.384003,183.392Q117.82400100000001,184.264,116.912003,184.736Q116,185.208,114.78399999999999,185.208ZM127.280003,176.3439999L127.280003,177.2559996Q127.856003,176.7919998,128.560001,176.53599930000001Q129.264004,176.2799997,129.984001,176.2799997Q130.704002,176.2799997,131.232002,176.5439997Q131.760002,176.8079996,132.064003,177.2719994Q132.656002,176.7919998,133.360001,176.53599930000001Q134.064003,176.2799997,134.784004,176.2799997Q136.000004,176.2799997,136.656002,177Q137.312004,177.7199993,137.312004,178.8719997L137.312004,185L134.752003,185L134.752003,179.304Q134.752003,178.8400002,134.440002,178.5439997Q134.128002,178.2479992,133.61600099999998,178.2479992Q133.392002,178.2479992,133.088001,178.3439999Q132.784004,178.4399996,132.496002,178.6000004Q132.512001,178.6959991,132.512001,178.8719997L132.512001,185L129.952003,185L129.952003,179.304Q129.952003,178.8400002,129.640003,178.5439997Q129.328003,178.2479992,128.816002,178.2479992Q128.512001,178.2479992,128.064003,178.4239998Q127.616001,178.6000004,127.280003,178.8879995L127.280003,185L124.720001,185L124.720001,176.3439999L127.280003,176.3439999ZM141.472004,176.3439999L141.472004,177.2559996Q142.048004,176.7919998,142.752003,176.53599930000001Q143.456005,176.2799997,144.176003,176.2799997Q144.896004,176.2799997,145.424004,176.5439997Q145.952003,176.8079996,146.25600400000002,177.2719994Q146.848007,176.7919998,147.55200200000002,176.53599930000001Q148.25600400000002,176.2799997,148.97600599999998,176.2799997Q150.192001,176.2799997,150.848007,177Q151.504005,177.7199993,151.504005,178.8719997L151.504005,185L148.94400000000002,185L148.94400000000002,179.304Q148.94400000000002,178.8400002,148.632004,178.5439997Q148.320007,178.2479992,147.808006,178.2479992Q147.584,178.2479992,147.28000600000001,178.3439999Q146.97600599999998,178.4399996,146.688004,178.6000004Q146.704002,178.6959991,146.704002,178.8719997L146.704002,185L144.144005,185L144.144005,179.304Q144.144005,178.8400002,143.832005,178.5439997Q143.520004,178.2479992,143.008003,178.2479992Q142.704002,178.2479992,142.256004,178.4239998Q141.808002,178.6000004,141.472004,178.8879995L141.472004,185L138.912003,185L138.912003,176.3439999L141.472004,176.3439999Z" fill="#FFFFFF" fill-opacity="1"/></g></g></g></svg>